<?xml version="1.0" encoding="utf-8"?>
<!-- Generator: Adobe Illustrator 16.0.0, SVG Export Plug-In . SVG Version: 6.00 Build 0)  -->
<!DOCTYPE svg PUBLIC "-//W3C//DTD SVG 1.1//EN" "http://www.w3.org/Graphics/SVG/1.1/DTD/svg11.dtd">
<svg version="1.1" id="Layer_1" xmlns="http://www.w3.org/2000/svg" xmlns:xlink="http://www.w3.org/1999/xlink" x="0px" y="0px"
	 width="65.92px" height="65.92px" viewBox="0 0 65.92 65.92" enable-background="new 0 0 65.92 65.92" xml:space="preserve">
<g>
	<path d="M34.255,41.943V22.987h1v9.352c0.912-0.558,2.443-1.357,3.722-1.357c0.847,0,2.275,0.365,2.319,2.81
		c0.048,2.661-5.594,7.048-6.237,7.539L34.255,41.943z M35.255,33.526v6.372c2.229-1.83,5.067-4.646,5.041-6.09
		c-0.029-1.619-0.721-1.827-1.319-1.827C37.771,31.981,36.041,32.99,35.255,33.526z"/>
	<path d="M26.573,41.943V22.987h1v9.352c0.912-0.558,2.443-1.357,3.721-1.357c0.848,0,2.276,0.365,2.32,2.81
		c0.048,2.661-5.594,7.048-6.238,7.539L26.573,41.943z M27.573,33.526v6.372c2.229-1.83,5.067-4.646,5.041-6.09
		c-0.029-1.619-0.721-1.827-1.32-1.827C30.089,31.981,28.359,32.99,27.573,33.526z"/>
</g>
</svg>
