<?xml version="1.0" encoding="utf-8"?>
<!-- Generator: Adobe Illustrator 16.0.0, SVG Export Plug-In . SVG Version: 6.00 Build 0)  -->
<!DOCTYPE svg PUBLIC "-//W3C//DTD SVG 1.1//EN" "http://www.w3.org/Graphics/SVG/1.1/DTD/svg11.dtd">
<svg version="1.1" id="Layer_1" xmlns="http://www.w3.org/2000/svg" xmlns:xlink="http://www.w3.org/1999/xlink" x="0px" y="0px"
	 width="65.92px" height="65.92px" viewBox="0 0 65.92 65.92" enable-background="new 0 0 65.92 65.92" xml:space="preserve">
<g>
	<path d="M44.343,26.138c0,0,1.764-9.604,1.471-13.447c-0.178-2.332-0.291-3.148-2.188-4.223c-0.541-0.307-1.654-0.441-2.534-0.5
		c-0.7-0.047-1.253-0.498-1.253-0.498V4.001c0,0,1.541,1.58,3.121,1.643c0.947,0.035,1.842,0.617,2.188,1.006
		c2.359,2.648,1.789,6.668,1.422,9.945C46.097,20.806,44.343,26.138,44.343,26.138z"/>
	<g>
		<rect x="38.824" y="3.96" width="1" height="24.469"/>
		<g>
			<rect x="27.622" y="32.537" transform="matrix(0.7071 0.7071 -0.7071 0.7071 33.4925 -14.7837)" width="13.94" height="1"/>
			<rect x="34.092" y="26.067" transform="matrix(0.7071 0.7071 -0.7071 0.7071 33.4925 -14.7837)" width="1" height="13.94"/>
		</g>
	</g>
</g>
</svg>
