<?xml version="1.0" encoding="utf-8"?>
<!-- Generator: Adobe Illustrator 16.0.0, SVG Export Plug-In . SVG Version: 6.00 Build 0)  -->
<!DOCTYPE svg PUBLIC "-//W3C//DTD SVG 1.1//EN" "http://www.w3.org/Graphics/SVG/1.1/DTD/svg11.dtd">
<svg version="1.1" id="Layer_1" xmlns="http://www.w3.org/2000/svg" xmlns:xlink="http://www.w3.org/1999/xlink" x="0px" y="0px"
	 width="65.92px" height="65.92px" viewBox="0 0 65.92 65.92" enable-background="new 0 0 65.92 65.92" xml:space="preserve">
<g>
	<g>
		<path d="M44.58,17.101c0,0-0.174-0.686-0.467-4.529c-0.178-2.332-0.291-3.148-2.188-4.223c-0.541-0.307-1.654-0.441-2.535-0.5
			c-0.699-0.047-1.252-0.498-1.252-0.498V3.882c0,0,1.541,1.58,3.121,1.643c0.947,0.035,1.842,0.617,2.188,1.006
			c2.359,2.648,1.787,6.668,1.42,9.945C44.395,20.687,44.58,17.101,44.58,17.101z"/>
		<path d="M42.643,30.736c0,0,1.764-9.603,1.471-13.446c-0.178-2.332-0.291-3.148-2.188-4.223c-0.541-0.307-1.654-0.441-2.535-0.5
			c-0.699-0.047-1.252-0.498-1.252-0.498V8.601c0,0,1.541,1.58,3.121,1.643c0.947,0.035,1.842,0.617,2.188,1.006
			c2.359,2.648,1.787,6.668,1.42,9.945C44.395,25.406,42.643,30.736,42.643,30.736z"/>
	</g>
	<g>
		<rect x="37.192" y="3.882" width="1" height="24.47"/>
		<g>
			<rect x="25.99" y="32.46" transform="matrix(0.7071 0.7071 -0.7071 0.7071 32.96 -13.6525)" width="13.94" height="1"/>
			<rect x="32.46" y="25.99" transform="matrix(0.7071 0.7071 -0.7071 0.7071 32.96 -13.6525)" width="1" height="13.94"/>
		</g>
	</g>
</g>
</svg>
