<?xml version="1.0" encoding="utf-8"?>
<!-- Generator: Adobe Illustrator 16.0.0, SVG Export Plug-In . SVG Version: 6.00 Build 0)  -->
<!DOCTYPE svg PUBLIC "-//W3C//DTD SVG 1.1//EN" "http://www.w3.org/Graphics/SVG/1.1/DTD/svg11.dtd">
<svg version="1.1" id="Layer_1" xmlns="http://www.w3.org/2000/svg" xmlns:xlink="http://www.w3.org/1999/xlink" x="0px" y="0px"
	 width="65.92px" height="65.92px" viewBox="0 0 65.92 65.92" enable-background="new 0 0 65.92 65.92" xml:space="preserve">
<g>
	<g>
		<path d="M46.195,17.102c0,0-0.174-0.688-0.467-4.529c-0.178-2.332-0.291-3.15-2.188-4.223C43,8.043,41.887,7.908,41.006,7.85
			c-0.699-0.047-1.252-0.498-1.252-0.498V3.883c0,0,1.541,1.58,3.121,1.642c0.947,0.036,1.842,0.618,2.188,1.006
			c2.359,2.649,1.787,6.667,1.42,9.946C46.01,20.688,46.195,17.102,46.195,17.102z"/>
		<path d="M45.403,30.736c0,0,0.618-5.604,0.325-9.445c-0.178-2.332-0.291-3.15-2.188-4.223c-0.541-0.307-1.654-0.441-2.535-0.5
			c-0.699-0.047-1.252-0.498-1.252-0.498v-3.469c0,0,1.541,1.58,3.121,1.641c0.947,0.037,1.842,0.619,2.188,1.006
			c2.359,2.65,1.787,6.668,1.42,9.947C46.01,29.406,45.403,30.736,45.403,30.736z"/>
		<path d="M46.195,21.463c0,0-0.174-0.688-0.467-4.529c-0.178-2.332-0.291-3.15-2.188-4.223c-0.541-0.307-1.654-0.441-2.535-0.5
			c-0.699-0.047-1.252-0.498-1.252-0.498V8.244c0,0,1.541,1.58,3.121,1.641c0.947,0.037,1.842,0.619,2.188,1.006
			c2.359,2.65,1.787,6.668,1.42,9.947C46.01,25.049,46.195,21.463,46.195,21.463z"/>
	</g>
	<g>
		<rect x="38.767" y="3.883" width="1" height="24.47"/>
		<g>
			<rect x="27.564" y="32.46" transform="matrix(0.7071 0.7071 -0.7071 0.7071 33.421 -14.7656)" width="13.94" height="1"/>
			<rect x="34.034" y="25.99" transform="matrix(0.7071 0.7071 -0.7071 0.7071 33.421 -14.7656)" width="1" height="13.94"/>
		</g>
	</g>
</g>
</svg>
