<?xml version="1.0" encoding="utf-8"?>
<!-- Generator: Adobe Illustrator 16.0.0, SVG Export Plug-In . SVG Version: 6.00 Build 0)  -->
<!DOCTYPE svg PUBLIC "-//W3C//DTD SVG 1.1//EN" "http://www.w3.org/Graphics/SVG/1.1/DTD/svg11.dtd">
<svg version="1.1" id="Layer_1" xmlns="http://www.w3.org/2000/svg" xmlns:xlink="http://www.w3.org/1999/xlink" x="0px" y="0px"
	 width="65.92px" height="65.92px" viewBox="0 0 65.92 65.92" enable-background="new 0 0 65.92 65.92" xml:space="preserve">
<g>
	<g>
		<g>
			<ellipse cx="33.125" cy="32.896" rx="6.602" ry="5.377"/>
			<path d="M33.125,38.772c-3.916,0-7.103-2.637-7.103-5.877s3.187-5.877,7.103-5.877s7.102,2.637,7.102,5.877
				S37.041,38.772,33.125,38.772z M33.125,28.019c-3.365,0-6.103,2.188-6.103,4.877s2.737,4.877,6.103,4.877
				c3.364,0,6.102-2.188,6.102-4.877S36.489,28.019,33.125,28.019z"/>
		</g>
		<rect x="39.227" y="4.817" width="1" height="28.078"/>
	</g>
	<path d="M44.689,27.312c0,0,1.764-9.604,1.471-13.446c-0.178-2.332-0.291-3.149-2.188-4.223c-0.541-0.307-1.654-0.441-2.534-0.5
		c-0.7-0.047-1.253-0.498-1.253-0.498V5.176c0,0,1.541,1.58,3.121,1.642c0.947,0.036,1.842,0.618,2.188,1.006
		c2.359,2.649,1.789,6.668,1.422,9.946C46.443,21.98,44.689,27.312,44.689,27.312z"/>
</g>
</svg>
