<?xml version="1.0" encoding="utf-8"?>
<!-- Generator: Adobe Illustrator 16.0.0, SVG Export Plug-In . SVG Version: 6.00 Build 0)  -->
<!DOCTYPE svg PUBLIC "-//W3C//DTD SVG 1.1//EN" "http://www.w3.org/Graphics/SVG/1.1/DTD/svg11.dtd">
<svg version="1.1" id="Layer_1" xmlns="http://www.w3.org/2000/svg" xmlns:xlink="http://www.w3.org/1999/xlink" x="0px" y="0px"
	 width="65.921px" height="65.92px" viewBox="0 0 65.921 65.92" enable-background="new 0 0 65.921 65.92" xml:space="preserve">
<path d="M29.075,16.21c0,0,10.125,9.625,9.875,10.814c-0.328,1.559-4.067,2.701-3.875,5.061c0.212,2.6,6.938,8.5,6.938,8.5
	s-8.465-1.571-9.25,0.875c-1.063,3.313,1.25,8.25,1.25,8.25s-6.695-5.965-7-8.75C26.075,32.397,37.7,38.085,37.7,38.085
	s-10.188-8.625-9.813-9.5c0.579-1.351,3.952-1.438,3.625-4.625C31.32,22.085,29.075,16.21,29.075,16.21z"/>
</svg>
