<?xml version="1.0" encoding="utf-8"?>
<!-- Generator: Adobe Illustrator 16.0.0, SVG Export Plug-In . SVG Version: 6.00 Build 0)  -->
<!DOCTYPE svg PUBLIC "-//W3C//DTD SVG 1.1//EN" "http://www.w3.org/Graphics/SVG/1.1/DTD/svg11.dtd">
<svg version="1.1" id="Layer_1" xmlns="http://www.w3.org/2000/svg" xmlns:xlink="http://www.w3.org/1999/xlink" x="0px" y="0px"
	 width="65.92px" height="65.92px" viewBox="0 0 65.92 65.92" enable-background="new 0 0 65.92 65.92" xml:space="preserve">
<g>
	<g>
		<circle cx="31.509" cy="19.795" r="3.333"/>
		<path d="M38.585,18.084c0,0,0.033,0.182,0.067,0.493c0.025,0.154,0.031,0.344,0.004,0.577c-0.01,0.119-0.021,0.245-0.033,0.379
			c-0.022,0.129-0.133,0.22-0.185,0.347c-0.252,0.485-0.652,0.993-1.145,1.461c-0.249,0.233-0.523,0.449-0.821,0.644
			c-0.297,0.191-0.61,0.374-0.938,0.516c-0.647,0.31-1.341,0.487-1.992,0.603c-0.654,0.115-1.272,0.133-1.799,0.118
			c-0.131-0.017-0.26,0.033-0.377-0.026c-0.115-0.05-0.224-0.098-0.327-0.142c-0.204-0.081-0.373-0.18-0.511-0.261
			c-0.275-0.162-0.422-0.264-0.422-0.264s0.175-0.04,0.481-0.11c0.149-0.029,0.329-0.068,0.53-0.122
			c0.1-0.025,0.205-0.053,0.316-0.082c0.11-0.032,0.221,0.023,0.34,0.007c0.471,0.014,1.024-0.002,1.602-0.104
			c0.575-0.103,1.186-0.257,1.742-0.525c1.137-0.499,2.029-1.394,2.445-2.196c0.084-0.216,0.223-0.365,0.365-0.505
			c0.134-0.14,0.261-0.282,0.348-0.414C38.465,18.224,38.585,18.084,38.585,18.084z"/>
	</g>
	<rect x="33.957" y="17.421" transform="matrix(0.9498 0.3127 -0.3127 0.9498 11.2988 -9.2401)" width="0.999" height="26.37"/>
	<g>
		<circle cx="29.258" cy="26.678" r="3.333"/>
		<path d="M36.334,24.967c0,0,0.033,0.182,0.067,0.493c0.024,0.154,0.031,0.344,0.005,0.577c-0.011,0.119-0.022,0.245-0.034,0.379
			c-0.022,0.129-0.133,0.22-0.185,0.347c-0.252,0.485-0.652,0.993-1.145,1.461c-0.249,0.233-0.523,0.449-0.822,0.644
			c-0.296,0.191-0.609,0.374-0.937,0.516c-0.647,0.31-1.341,0.487-1.992,0.603c-0.654,0.115-1.272,0.133-1.799,0.118
			c-0.131-0.017-0.26,0.033-0.376-0.026c-0.115-0.05-0.225-0.098-0.328-0.142c-0.204-0.081-0.373-0.18-0.511-0.261
			c-0.275-0.162-0.422-0.264-0.422-0.264s0.175-0.04,0.481-0.11c0.149-0.029,0.329-0.068,0.53-0.122
			c0.1-0.025,0.205-0.053,0.316-0.082c0.11-0.032,0.221,0.023,0.34,0.007c0.471,0.014,1.024-0.002,1.603-0.104
			c0.574-0.103,1.186-0.257,1.741-0.525c1.137-0.499,2.029-1.394,2.445-2.196c0.084-0.216,0.222-0.365,0.365-0.505
			c0.134-0.14,0.261-0.282,0.348-0.414C36.214,25.106,36.334,24.967,36.334,24.967z"/>
	</g>
</g>
</svg>
