<?xml version="1.0" encoding="utf-8"?>
<!-- Generator: Adobe Illustrator 16.0.0, SVG Export Plug-In . SVG Version: 6.00 Build 0)  -->
<!DOCTYPE svg PUBLIC "-//W3C//DTD SVG 1.1//EN" "http://www.w3.org/Graphics/SVG/1.1/DTD/svg11.dtd">
<svg version="1.1" id="Layer_1" xmlns="http://www.w3.org/2000/svg" xmlns:xlink="http://www.w3.org/1999/xlink" x="0px" y="0px"
	 width="65.92px" height="65.92px" viewBox="0 0 65.92 65.92" enable-background="new 0 0 65.92 65.92" xml:space="preserve">
<g>
	<circle cx="32.718" cy="25.528" r="3.333"/>
	<path d="M39.794,23.817c0,0,0.033,0.182,0.067,0.493c0.025,0.154,0.031,0.344,0.004,0.577c-0.01,0.119-0.021,0.245-0.033,0.379
		c-0.022,0.129-0.133,0.22-0.185,0.347c-0.252,0.485-0.652,0.993-1.145,1.461c-0.249,0.233-0.523,0.449-0.822,0.644
		c-0.296,0.191-0.609,0.374-0.937,0.516c-0.647,0.31-1.341,0.487-1.992,0.603c-0.654,0.115-1.272,0.133-1.799,0.118
		c-0.131-0.017-0.26,0.033-0.376-0.026c-0.116-0.05-0.225-0.098-0.328-0.142c-0.204-0.08-0.373-0.18-0.511-0.261
		c-0.275-0.162-0.422-0.264-0.422-0.264s0.175-0.04,0.481-0.11c0.149-0.029,0.329-0.068,0.53-0.122
		c0.1-0.025,0.205-0.054,0.316-0.082c0.11-0.032,0.221,0.023,0.34,0.007c0.471,0.014,1.024-0.002,1.602-0.104
		c0.575-0.103,1.186-0.257,1.742-0.525c1.137-0.499,2.029-1.394,2.445-2.196c0.084-0.216,0.222-0.365,0.365-0.505
		c0.134-0.14,0.261-0.282,0.348-0.414C39.674,23.957,39.794,23.817,39.794,23.817z"/>
	<rect x="36.013" y="23.291" transform="matrix(0.9498 0.3127 -0.3127 0.9498 12.3917 -9.7241)" width="0.999" height="20.962"/>
</g>
</svg>
