<?xml version="1.0" encoding="utf-8"?>
<!-- Generator: Adobe Illustrator 16.0.0, SVG Export Plug-In . SVG Version: 6.00 Build 0)  -->
<!DOCTYPE svg PUBLIC "-//W3C//DTD SVG 1.1//EN" "http://www.w3.org/Graphics/SVG/1.1/DTD/svg11.dtd">
<svg version="1.1" id="Layer_1" xmlns="http://www.w3.org/2000/svg" xmlns:xlink="http://www.w3.org/1999/xlink" x="0px" y="0px"
	 width="65.921px" height="65.92px" viewBox="0 0 65.921 65.92" enable-background="new 0 0 65.921 65.92" xml:space="preserve">
<g>
	<g>
		<g>
			<ellipse cx="34.34" cy="32.896" rx="6.602" ry="5.377"/>
			<path d="M34.341,38.772c-3.916,0-7.103-2.637-7.103-5.877s3.187-5.877,7.103-5.877s7.102,2.637,7.102,5.877
				S38.257,38.772,34.341,38.772z M34.341,28.019c-3.365,0-6.103,2.188-6.103,4.877s2.737,4.877,6.103,4.877
				c3.364,0,6.102-2.188,6.102-4.877S37.705,28.019,34.341,28.019z"/>
		</g>
		<rect x="40.442" y="4.817" width="1" height="28.078"/>
	</g>
	<path d="M47.843,18.395c0,0-0.174-0.687-0.467-4.529c-0.178-2.332-0.291-3.149-2.188-4.223c-0.541-0.307-1.654-0.441-2.535-0.5
		c-0.699-0.047-1.252-0.498-1.252-0.498V5.176c0,0,1.541,1.58,3.121,1.642c0.947,0.036,1.842,0.618,2.188,1.006
		c2.359,2.649,1.787,6.668,1.42,9.946C47.657,21.98,47.843,18.395,47.843,18.395z"/>
	<path d="M45.905,32.03c0,0,1.764-9.604,1.471-13.446c-0.178-2.332-0.291-3.149-2.188-4.223c-0.541-0.307-1.654-0.441-2.535-0.5
		c-0.699-0.047-1.252-0.498-1.252-0.498V9.895c0,0,1.541,1.58,3.121,1.642c0.947,0.036,1.842,0.618,2.188,1.006
		c2.359,2.649,1.787,6.668,1.42,9.946C47.657,26.699,45.905,32.03,45.905,32.03z"/>
</g>
</svg>
